<?xml version="1.0" encoding="UTF-8" standalone="no"?>
<!DOCTYPE svg PUBLIC "-//W3C//DTD SVG 1.1//EN"
 "http://www.w3.org/Graphics/SVG/1.1/DTD/svg11.dtd">
<!-- Generated by graphviz version 2.43.0 (0)
 -->
<!-- Title: %3 Pages: 1 -->
<svg width="1048pt" height="620pt"
 viewBox="0.00 0.00 1047.50 620.00" xmlns="http://www.w3.org/2000/svg" xmlns:xlink="http://www.w3.org/1999/xlink">
<g id="graph0" class="graph" transform="scale(1 1) rotate(0) translate(4 616)">
<title>%3</title>
<polygon fill="white" stroke="transparent" points="-4,4 -4,-616 1043.5,-616 1043.5,4 -4,4"/>
<!-- [root] google_compute_backend_service.default (expand) -->
<g id="node1" class="node">
<title>[root] google_compute_backend_service.default (expand)</title>
<polygon fill="none" stroke="black" points="619,-252 308,-252 308,-216 619,-216 619,-252"/>
<text text-anchor="middle" x="463.5" y="-230.3" font-family="Times,serif" font-size="14.00">google_compute_backend_service.default</text>
</g>
<!-- [root] google_compute_health_check.default (expand) -->
<g id="node5" class="node">
<title>[root] google_compute_health_check.default (expand)</title>
<polygon fill="none" stroke="black" points="589.5,-180 303.5,-180 303.5,-144 589.5,-144 589.5,-180"/>
<text text-anchor="middle" x="446.5" y="-158.3" font-family="Times,serif" font-size="14.00">google_compute_health_check.default</text>
</g>
<!-- [root] google_compute_backend_service.default (expand)&#45;&gt;[root] google_compute_health_check.default (expand) -->
<g id="edge1" class="edge">
<title>[root] google_compute_backend_service.default (expand)&#45;&gt;[root] google_compute_health_check.default (expand)</title>
<path fill="none" stroke="black" d="M459.3,-215.7C457.4,-207.9 455.12,-198.51 453.02,-189.83"/>
<polygon fill="black" stroke="black" points="456.42,-189 450.65,-180.1 449.61,-190.65 456.42,-189"/>
</g>
<!-- [root] google_compute_instance_group_manager.default (expand) -->
<g id="node6" class="node">
<title>[root] google_compute_instance_group_manager.default (expand)</title>
<polygon fill="none" stroke="black" points="979,-180 608,-180 608,-144 979,-144 979,-180"/>
<text text-anchor="middle" x="793.5" y="-158.3" font-family="Times,serif" font-size="14.00">google_compute_instance_group_manager.default</text>
</g>
<!-- [root] google_compute_backend_service.default (expand)&#45;&gt;[root] google_compute_instance_group_manager.default (expand) -->
<g id="edge2" class="edge">
<title>[root] google_compute_backend_service.default (expand)&#45;&gt;[root] google_compute_instance_group_manager.default (expand)</title>
<path fill="none" stroke="black" d="M543.81,-215.97C592.01,-205.74 653.44,-192.71 703.31,-182.13"/>
<polygon fill="black" stroke="black" points="704.07,-185.55 713.12,-180.05 702.61,-178.7 704.07,-185.55"/>
</g>
<!-- [root] google_compute_firewall.default (expand) -->
<g id="node2" class="node">
<title>[root] google_compute_firewall.default (expand)</title>
<polygon fill="none" stroke="black" points="247,-324 0,-324 0,-288 247,-288 247,-324"/>
<text text-anchor="middle" x="123.5" y="-302.3" font-family="Times,serif" font-size="14.00">google_compute_firewall.default</text>
</g>
<!-- [root] provider[&quot;registry.terraform.io/hashicorp/google&quot;] -->
<g id="node11" class="node">
<title>[root] provider[&quot;registry.terraform.io/hashicorp/google&quot;]</title>
<polygon fill="none" stroke="black" points="479.5,-36 135.97,-18 479.5,0 823.03,-18 479.5,-36"/>
<text text-anchor="middle" x="479.5" y="-14.3" font-family="Times,serif" font-size="14.00">provider[&quot;registry.terraform.io/hashicorp/google&quot;]</text>
</g>
<!-- [root] google_compute_firewall.default (expand)&#45;&gt;[root] provider[&quot;registry.terraform.io/hashicorp/google&quot;] -->
<g id="edge3" class="edge">
<title>[root] google_compute_firewall.default (expand)&#45;&gt;[root] provider[&quot;registry.terraform.io/hashicorp/google&quot;]</title>
<path fill="none" stroke="black" d="M118.64,-287.89C107.66,-245.16 86.04,-132.84 142.5,-72 164.44,-48.36 228.7,-35.24 295.31,-27.97"/>
<polygon fill="black" stroke="black" points="296,-31.42 305.58,-26.9 295.27,-24.46 296,-31.42"/>
</g>
<!-- [root] google_compute_global_address.default (expand) -->
<g id="node3" class="node">
<title>[root] google_compute_global_address.default (expand)</title>
<polygon fill="none" stroke="black" points="451.5,-108 151.5,-108 151.5,-72 451.5,-72 451.5,-108"/>
<text text-anchor="middle" x="301.5" y="-86.3" font-family="Times,serif" font-size="14.00">google_compute_global_address.default</text>
</g>
<!-- [root] google_compute_global_address.default (expand)&#45;&gt;[root] provider[&quot;registry.terraform.io/hashicorp/google&quot;] -->
<g id="edge4" class="edge">
<title>[root] google_compute_global_address.default (expand)&#45;&gt;[root] provider[&quot;registry.terraform.io/hashicorp/google&quot;]</title>
<path fill="none" stroke="black" d="M345.04,-71.88C371.26,-61.57 404.67,-48.43 431.63,-37.83"/>
<polygon fill="black" stroke="black" points="433.22,-40.96 441.24,-34.05 430.65,-34.45 433.22,-40.96"/>
</g>
<!-- [root] google_compute_global_forwarding_rule.default (expand) -->
<g id="node4" class="node">
<title>[root] google_compute_global_forwarding_rule.default (expand)</title>
<polygon fill="none" stroke="black" points="566.5,-468 208.5,-468 208.5,-432 566.5,-432 566.5,-468"/>
<text text-anchor="middle" x="387.5" y="-446.3" font-family="Times,serif" font-size="14.00">google_compute_global_forwarding_rule.default</text>
</g>
<!-- [root] google_compute_global_forwarding_rule.default (expand)&#45;&gt;[root] google_compute_global_address.default (expand) -->
<g id="edge5" class="edge">
<title>[root] google_compute_global_forwarding_rule.default (expand)&#45;&gt;[root] google_compute_global_address.default (expand)</title>
<path fill="none" stroke="black" d="M340.63,-431.87C323.74,-423.49 306.02,-411.75 294.5,-396 270.62,-363.36 275.5,-347.45 275.5,-307 275.5,-307 275.5,-307 275.5,-233 275.5,-192.55 285.83,-146.67 293.47,-118.28"/>
<polygon fill="black" stroke="black" points="296.94,-118.87 296.24,-108.3 290.19,-117 296.94,-118.87"/>
</g>
<!-- [root] google_compute_target_http_proxy.default (expand) -->
<g id="node9" class="node">
<title>[root] google_compute_target_http_proxy.default (expand)</title>
<polygon fill="none" stroke="black" points="623.5,-396 303.5,-396 303.5,-360 623.5,-360 623.5,-396"/>
<text text-anchor="middle" x="463.5" y="-374.3" font-family="Times,serif" font-size="14.00">google_compute_target_http_proxy.default</text>
</g>
<!-- [root] google_compute_global_forwarding_rule.default (expand)&#45;&gt;[root] google_compute_target_http_proxy.default (expand) -->
<g id="edge6" class="edge">
<title>[root] google_compute_global_forwarding_rule.default (expand)&#45;&gt;[root] google_compute_target_http_proxy.default (expand)</title>
<path fill="none" stroke="black" d="M406.29,-431.7C415.67,-423.05 427.18,-412.45 437.41,-403.03"/>
<polygon fill="black" stroke="black" points="439.95,-405.45 444.93,-396.1 435.2,-400.3 439.95,-405.45"/>
</g>
<!-- [root] google_compute_health_check.default (expand)&#45;&gt;[root] provider[&quot;registry.terraform.io/hashicorp/google&quot;] -->
<g id="edge7" class="edge">
<title>[root] google_compute_health_check.default (expand)&#45;&gt;[root] provider[&quot;registry.terraform.io/hashicorp/google&quot;]</title>
<path fill="none" stroke="black" d="M451.25,-143.87C454.06,-133.51 457.63,-120.03 460.5,-108 465.42,-87.38 470.4,-63.93 474.03,-46.28"/>
<polygon fill="black" stroke="black" points="477.53,-46.61 476.1,-36.12 470.67,-45.22 477.53,-46.61"/>
</g>
<!-- [root] google_compute_instance_template.default (expand) -->
<g id="node7" class="node">
<title>[root] google_compute_instance_template.default (expand)</title>
<polygon fill="none" stroke="black" points="893.5,-108 569.5,-108 569.5,-72 893.5,-72 893.5,-108"/>
<text text-anchor="middle" x="731.5" y="-86.3" font-family="Times,serif" font-size="14.00">google_compute_instance_template.default</text>
</g>
<!-- [root] google_compute_instance_group_manager.default (expand)&#45;&gt;[root] google_compute_instance_template.default (expand) -->
<g id="edge8" class="edge">
<title>[root] google_compute_instance_group_manager.default (expand)&#45;&gt;[root] google_compute_instance_template.default (expand)</title>
<path fill="none" stroke="black" d="M778.17,-143.7C770.74,-135.3 761.68,-125.07 753.52,-115.86"/>
<polygon fill="black" stroke="black" points="755.9,-113.27 746.65,-108.1 750.66,-117.91 755.9,-113.27"/>
</g>
<!-- [root] google_compute_instance_template.default (expand)&#45;&gt;[root] provider[&quot;registry.terraform.io/hashicorp/google&quot;] -->
<g id="edge9" class="edge">
<title>[root] google_compute_instance_template.default (expand)&#45;&gt;[root] provider[&quot;registry.terraform.io/hashicorp/google&quot;]</title>
<path fill="none" stroke="black" d="M670.18,-71.97C630.96,-61.07 580.27,-46.99 541.02,-36.09"/>
<polygon fill="black" stroke="black" points="541.87,-32.69 531.3,-33.39 540,-39.44 541.87,-32.69"/>
</g>
<!-- [root] google_compute_security_policy.policy (expand) -->
<g id="node8" class="node">
<title>[root] google_compute_security_policy.policy (expand)</title>
<polygon fill="none" stroke="black" points="1039.5,-252 749.5,-252 749.5,-216 1039.5,-216 1039.5,-252"/>
<text text-anchor="middle" x="894.5" y="-230.3" font-family="Times,serif" font-size="14.00">google_compute_security_policy.policy</text>
</g>
<!-- [root] google_compute_security_policy.policy (expand)&#45;&gt;[root] provider[&quot;registry.terraform.io/hashicorp/google&quot;] -->
<g id="edge10" class="edge">
<title>[root] google_compute_security_policy.policy (expand)&#45;&gt;[root] provider[&quot;registry.terraform.io/hashicorp/google&quot;]</title>
<path fill="none" stroke="black" d="M946.15,-215.96C962.64,-207.8 979.05,-196.18 988.5,-180 1019.45,-127.02 958.75,-96.51 902.5,-72 855.43,-51.5 735.15,-37.65 634.83,-29.27"/>
<polygon fill="black" stroke="black" points="634.82,-25.75 624.57,-28.42 634.24,-32.73 634.82,-25.75"/>
</g>
<!-- [root] google_compute_url_map.default (expand) -->
<g id="node10" class="node">
<title>[root] google_compute_url_map.default (expand)</title>
<polygon fill="none" stroke="black" points="589,-324 338,-324 338,-288 589,-288 589,-324"/>
<text text-anchor="middle" x="463.5" y="-302.3" font-family="Times,serif" font-size="14.00">google_compute_url_map.default</text>
</g>
<!-- [root] google_compute_target_http_proxy.default (expand)&#45;&gt;[root] google_compute_url_map.default (expand) -->
<g id="edge11" class="edge">
<title>[root] google_compute_target_http_proxy.default (expand)&#45;&gt;[root] google_compute_url_map.default (expand)</title>
<path fill="none" stroke="black" d="M463.5,-359.7C463.5,-351.98 463.5,-342.71 463.5,-334.11"/>
<polygon fill="black" stroke="black" points="467,-334.1 463.5,-324.1 460,-334.1 467,-334.1"/>
</g>
<!-- [root] google_compute_url_map.default (expand)&#45;&gt;[root] google_compute_backend_service.default (expand) -->
<g id="edge12" class="edge">
<title>[root] google_compute_url_map.default (expand)&#45;&gt;[root] google_compute_backend_service.default (expand)</title>
<path fill="none" stroke="black" d="M463.5,-287.7C463.5,-279.98 463.5,-270.71 463.5,-262.11"/>
<polygon fill="black" stroke="black" points="467,-262.1 463.5,-252.1 460,-262.1 467,-262.1"/>
</g>
<!-- [root] provider[&quot;registry.terraform.io/hashicorp/google&quot;] (close) -->
<g id="node12" class="node">
<title>[root] provider[&quot;registry.terraform.io/hashicorp/google&quot;] (close)</title>
<ellipse fill="none" stroke="black" cx="387.5" cy="-522" rx="304.65" ry="18"/>
<text text-anchor="middle" x="387.5" y="-518.3" font-family="Times,serif" font-size="14.00">[root] provider[&quot;registry.terraform.io/hashicorp/google&quot;] (close)</text>
</g>
<!-- [root] provider[&quot;registry.terraform.io/hashicorp/google&quot;] (close)&#45;&gt;[root] google_compute_firewall.default (expand) -->
<g id="edge13" class="edge">
<title>[root] provider[&quot;registry.terraform.io/hashicorp/google&quot;] (close)&#45;&gt;[root] google_compute_firewall.default (expand)</title>
<path fill="none" stroke="black" d="M272.96,-505.29C246.66,-497.42 220.34,-485.63 199.5,-468 157.95,-432.84 137.6,-369.86 128.94,-333.98"/>
<polygon fill="black" stroke="black" points="132.35,-333.17 126.71,-324.2 125.52,-334.72 132.35,-333.17"/>
</g>
<!-- [root] provider[&quot;registry.terraform.io/hashicorp/google&quot;] (close)&#45;&gt;[root] google_compute_global_forwarding_rule.default (expand) -->
<g id="edge14" class="edge">
<title>[root] provider[&quot;registry.terraform.io/hashicorp/google&quot;] (close)&#45;&gt;[root] google_compute_global_forwarding_rule.default (expand)</title>
<path fill="none" stroke="black" d="M387.5,-503.7C387.5,-495.98 387.5,-486.71 387.5,-478.11"/>
<polygon fill="black" stroke="black" points="391,-478.1 387.5,-468.1 384,-478.1 391,-478.1"/>
</g>
<!-- [root] provider[&quot;registry.terraform.io/hashicorp/google&quot;] (close)&#45;&gt;[root] google_compute_security_policy.policy (expand) -->
<g id="edge15" class="edge">
<title>[root] provider[&quot;registry.terraform.io/hashicorp/google&quot;] (close)&#45;&gt;[root] google_compute_security_policy.policy (expand)</title>
<path fill="none" stroke="black" d="M469.4,-504.64C503.25,-496.18 542.26,-484.17 575.5,-468 695.21,-409.76 816.79,-305.87 868.58,-259.05"/>
<polygon fill="black" stroke="black" points="871.24,-261.36 876.28,-252.05 866.52,-256.19 871.24,-261.36"/>
</g>
<!-- [root] root -->
<g id="node13" class="node">
<title>[root] root</title>
<ellipse fill="none" stroke="black" cx="387.5" cy="-594" rx="58.49" ry="18"/>
<text text-anchor="middle" x="387.5" y="-590.3" font-family="Times,serif" font-size="14.00">[root] root</text>
</g>
<!-- [root] root&#45;&gt;[root] provider[&quot;registry.terraform.io/hashicorp/google&quot;] (close) -->
<g id="edge16" class="edge">
<title>[root] root&#45;&gt;[root] provider[&quot;registry.terraform.io/hashicorp/google&quot;] (close)</title>
<path fill="none" stroke="black" d="M387.5,-575.7C387.5,-567.98 387.5,-558.71 387.5,-550.11"/>
<polygon fill="black" stroke="black" points="391,-550.1 387.5,-540.1 384,-550.1 391,-550.1"/>
</g>
</g>
</svg>
